<svg xmlns="http://www.w3.org/2000/svg" width="256" height="256" viewBox="0 0 120 120" fill="none"
    stroke="#000000" stroke-width=".001" xmlns:v="https://vecta.io/nano">
    <g stroke="#de3b3b" stroke-linejoin="round" stroke-width="24">
        <path fill="#fafafa" d="M0 0h120v120H0z" />
        <use href="#A" fill-rule="evenodd" fill="#4f4f4f" />
    </g>
    <path fill="#fafafa" d="M0 0h120v120H0z" />
    <use href="#A" fill-rule="evenodd" fill="#4f4f4f" />
    <defs>
        <path id="A"
            d="M33.25 38.482c.01-1.434 1.17-2.595 2.604-2.607h47.292c1.439 0 2.604 1.168 2.604 2.607v42.037c-.01 1.434-1.17 2.595-2.604 2.607H35.854c-1.439-.001-2.604-1.168-2.604-2.607V38.482zm47.25 2.644h-42v36.75l24.392-24.397c1.025-1.025 2.687-1.025 3.712 0l13.897 13.923V41.125zm-36.751 10.5a5.25 5.25 0 1 0 10.5 0 5.25 5.25 0 1 0-10.5 0z" />
    </defs>

</svg>